<svg version="1.2" xmlns="http://www.w3.org/2000/svg" viewBox="0 0 350 350" width="350" height="350"><style>.a{fill:#0e0f21}.b{fill:#fff}.c{fill:#f39200}</style><path class="a" d="m175 350c-96.8 0-175-78.2-175-175 0-96.8 78.2-175 175-175 96.8 0 175 78.2 175 175 0 96.8-78.2 175-175 175z"/><path class="b" d="m169.7 109.9l-7.7-19.1q1.6-1.5 2-2.7 11.1-25.9 21.9-51.4c0.3-0.8 1.4-0.9 1.7-0.1l106.7 233.1q0.2 0.5-0.3 0.5l-50.5 0.1c-0.4 0-0.9-0.3-1.1-0.8z"/><path class="c" d="m162 90.8l7.7 19.1q-22.8 52.3-45.9 103.7-1.7 3.8-5 10.1c-0.2 0.2-0.1 0.6 0.2 0.7l0.4 0.1c-0.7 0.2-1.4 0.6-1.7 1.4q-10.4 22.5-21.1 44.5l-45.5 0.2c-0.5 0-0.8-0.5-0.6-1q45.9-100.4 91.2-200.2c1.5-3.4 2.9-7.3 4.4-10.9 0.2-0.6 1-0.6 1.3 0q6.2 13.2 12.4 26.1 1.4 2.9 2.2 6.2z"/><path class="b" d="m119.4 224.5l69.4 0.2q2.7 0 3.8 2.4l19.5 42.5c0.2 0.3-0.1 0.6-0.4 0.6l-115.1 0.2q10.7-22 21.1-44.5c0.3-0.8 1-1.2 1.7-1.4z"/></svg>