<svg version="1.2" xmlns="http://www.w3.org/2000/svg" viewBox="0 0 2871 286" width="2871" height="286"><style>.a{fill:#fff}.b{fill:#f39200}</style><path class="a" d="m119.7 73.9l-7.7-19.1q1.6-1.5 2-2.7 11.1-25.9 21.9-51.4c0.3-0.8 1.4-0.9 1.7-0.1l106.7 233.1q0.2 0.5-0.3 0.5l-50.5 0.1c-0.4 0-0.9-0.3-1.1-0.8z"/><path class="b" d="m112 54.8l7.7 19.1q-22.8 52.3-45.9 103.7-1.7 3.8-5 10.1c-0.2 0.2-0.1 0.6 0.2 0.7l0.4 0.1c-0.7 0.2-1.4 0.6-1.7 1.4q-10.4 22.5-21.1 44.5l-45.5 0.2c-0.5 0-0.8-0.5-0.6-1q45.9-100.4 91.2-200.2c1.5-3.4 2.9-7.3 4.4-10.9 0.2-0.6 1-0.6 1.3 0q6.2 13.2 12.4 26.1 1.4 2.9 2.2 6.2z"/><path class="a" d="m69.4 188.5l69.4 0.2q2.7 0 3.8 2.4l19.5 42.5c0.2 0.3-0.1 0.6-0.4 0.6l-115.1 0.2q10.7-22 21.1-44.5c0.3-0.8 1-1.2 1.7-1.4z"/><path class="a" d="m351.9 103.6v35.1q-8.8-6-17.6-8.9-8.8-2.9-18.3-2.9-18.1 0-28.1 10.6-10 10.4-10 29.3 0 18.9 10 29.5 10 10.4 28.1 10.4 10.1 0 19.1-3 9.1-3 16.8-8.9v35.2q-10.1 3.8-20.5 5.7-10.4 1.8-20.8 1.8-36.5 0-57-18.6-20.6-18.8-20.6-52.1 0-33.3 20.6-51.9 20.5-18.8 57-18.8 10.5 0 20.8 1.9 10.3 1.9 20.5 5.6zm82.8 23.3q-14.3 0-21.9 10.3-7.5 10.3-7.5 29.6 0 19.4 7.5 29.7 7.6 10.2 21.9 10.2 14 0 21.5-10.2 7.4-10.3 7.4-29.7 0-19.3-7.4-29.6-7.5-10.3-21.5-10.3zm0-30.8q34.7 0 54.2 18.8 19.6 18.7 19.6 51.9 0 33.2-19.6 51.9-19.5 18.8-54.2 18.8-34.9 0-54.6-18.8-19.6-18.7-19.6-51.9 0-33.2 19.6-51.9 19.7-18.8 54.6-18.8zm211.3 25.6q8.2-12.5 19.4-19 11.3-6.6 24.8-6.6 23.2 0 35.3 14.3 12.1 14.3 12.1 41.6v82h-43.2v-70.2q0.1-1.6 0.1-3.2 0.1-1.7 0.1-4.9 0-14.3-4.2-20.6-4.2-6.5-13.6-6.5-12.2 0-19 10.1-6.6 10.1-6.8 29.2v66.1h-43.3v-70.2q0-22.4-3.9-28.7-3.8-6.5-13.7-6.5-12.3 0-19.1 10.2-6.7 10.1-6.7 29v66.2h-43.3v-134.6h43.3v19.7q7.9-11.4 18.2-17.2 10.3-5.8 22.7-5.8 13.9 0 24.6 6.8 10.7 6.7 16.2 18.8zm156.4 92.8v70.7h-43.1v-185.8h43.1v19.7q8.8-11.8 19.7-17.3 10.8-5.7 24.9-5.7 24.8 0 40.8 19.9 16 19.7 16 50.8 0 31.1-16 51-16 19.7-40.8 19.7-14.1 0-24.9-5.5-10.9-5.7-19.7-17.5zm28.6-87.1q-13.9 0-21.3 10.2-7.3 10.1-7.3 29.2 0 19.1 7.3 29.3 7.4 10.1 21.3 10.1 13.8 0 21-10.1 7.3-10.1 7.3-29.3 0-19.2-7.3-29.3-7.2-10.1-21-10.1zm168.8 46h-22.4q-13.4 0-20.3 4.6-6.7 4.6-6.7 13.4 0 8.2 5.4 12.9 5.5 4.6 15.2 4.6 12.2 0 20.5-8.7 8.3-8.8 8.3-21.9zm43.4-16.2v76.8h-43.4v-19.9q-8.7 12.2-19.5 17.9-10.8 5.5-26.3 5.5-20.9 0-34-12.1-13-12.3-13-31.8 0-23.6 16.2-34.7 16.4-11.1 51.2-11.1h25.4v-3.3q0-10.2-8.1-14.9-8-4.8-25.1-4.8-13.8 0-25.7 2.7-11.9 2.8-22.1 8.3v-32.8q13.8-3.4 27.7-5 14-1.8 27.9-1.8 36.4 0 52.5 14.4 16.3 14.3 16.3 46.6zm156.9-5.2v82h-43.3v-13.3-49.4q0-17.4-0.8-24.1-0.7-6.6-2.7-9.7-2.5-4.2-6.8-6.5-4.4-2.4-9.9-2.4-13.4 0-21.1 10.5-7.7 10.3-7.7 28.7v66.2h-43.1v-134.6h43.1v19.7q9.7-11.8 20.6-17.3 11-5.6 24.2-5.6 23.3 0 35.3 14.3 12.2 14.3 12.2 41.5zm156.8 0v82h-43.3v-13.3-49.2q0-17.6-0.8-24.3-0.8-6.6-2.7-9.7-2.5-4.2-6.8-6.5-4.4-2.4-9.9-2.4-13.4 0-21.1 10.5-7.7 10.3-7.7 28.7v66.2h-43.1v-187h43.1v72.1q9.7-11.8 20.6-17.3 11-5.6 24.2-5.6 23.3 0 35.3 14.3 12.2 14.3 12.2 41.5zm155.8 14.4v12.2h-100.6q1.6 15.2 10.9 22.7 9.4 7.6 26.2 7.6 13.6 0 27.8-4 14.3-4 29.3-12.2v33.2q-15.2 5.7-30.5 8.7-15.3 2.9-30.5 2.9-36.6 0-56.9-18.5-20.2-18.6-20.2-52.2 0-32.9 19.9-51.8 19.9-18.8 54.8-18.8 31.7 0 50.7 19.1 19.1 19.1 19.1 51.1zm-100.1-14.4h55.9q0-12.2-7.2-19.7-7.1-7.5-18.7-7.5-12.5 0-20.3 7.1-7.8 6.9-9.7 20.1z"/><path class="a" d="m1596.4 160.6v18.7q-7.9-3.3-15.3-5-7.3-1.6-13.8-1.6-7 0-10.4 1.8-3.4 1.7-3.4 5.3 0 3 2.5 4.5 2.7 1.6 9.3 2.4l4.3 0.6q18.9 2.4 25.4 7.9 6.5 5.5 6.5 17.2 0 12.2-9.1 18.4-9 6.2-27 6.2-7.6 0-15.7-1.2-8.1-1.2-16.7-3.6v-18.7q7.4 3.6 15 5.4 7.8 1.8 15.7 1.8 7.2 0 10.9-2 3.6-2 3.6-5.9 0-3.3-2.5-4.9-2.5-1.6-10-2.5l-4.3-0.6q-16.4-2-23-7.6-6.5-5.5-6.5-16.8 0-12.2 8.3-18.1 8.4-5.9 25.7-5.9 6.7 0 14.2 1 7.5 1 16.3 3.2zm89.6 35.8v7h-57.3q0.9 8.6 6.2 13 5.4 4.3 14.9 4.3 7.8 0 15.9-2.3 8.1-2.3 16.7-7v18.9q-8.7 3.3-17.4 5-8.7 1.7-17.4 1.7-20.9 0-32.4-10.6-11.6-10.6-11.6-29.7 0-18.8 11.4-29.6 11.3-10.7 31.2-10.7 18.1 0 28.9 10.9 10.9 10.9 10.9 29.1zm-57.1-8.1h31.9q0-7-4.1-11.3-4-4.3-10.6-4.3-7.1 0-11.6 4-4.5 4-5.6 11.6zm64.4 16.8v-46.9h24.6v7.7q0 6.2 0 15.7-0.1 9.4-0.1 12.5 0 9.3 0.5 13.4 0.5 4.1 1.6 5.9 1.5 2.4 3.9 3.7 2.5 1.3 5.7 1.3 7.6 0 12-5.9 4.4-5.9 4.4-16.4v-37.9h24.6v76.8h-24.6v-11.1q-5.5 6.7-11.8 9.9-6.1 3.2-13.6 3.2-13.3 0-20.3-8.2-6.9-8.1-6.9-23.7z"/><path class="a" d="m1832.3 214.5v70.7h-43.1v-185.8h43.1v19.7q8.9-11.8 19.7-17.3 10.8-5.7 24.9-5.7 24.8 0 40.8 19.9 16 19.7 16 50.8 0 31.1-16 51-16 19.7-40.8 19.7-14.1 0-24.9-5.5-10.8-5.7-19.7-17.5zm28.6-87.1q-13.9 0-21.3 10.2-7.3 10.1-7.3 29.2 0 19.1 7.3 29.3 7.4 10.1 21.3 10.1 13.8 0 21-10.1 7.3-10.1 7.3-29.3 0-19.2-7.3-29.3-7.2-10.1-21-10.1zm186-30.3l0.1 38.9q-5.7-2.6-11.3-3.8-5.5-1.3-11.2-1.3-16.6 0-25.6 10.7-8.9 10.5-8.9 30.4v62h-43v-134.6h43v22.1q8.3-13.2 19-19.2 10.8-6.2 25.9-6.2 2.1 0 4.6 0.3 2.6 0.1 7.4 0.7zm67.1 29.8q-14.3 0-21.9 10.3-7.4 10.3-7.4 29.6 0 19.4 7.4 29.7 7.6 10.2 21.9 10.2 14.1 0 21.5-10.2 7.5-10.3 7.5-29.7 0-19.3-7.5-29.6-7.4-10.3-21.5-10.3zm0-30.8q34.7 0 54.2 18.8 19.6 18.7 19.6 51.9 0 33.2-19.6 51.9-19.5 18.8-54.2 18.8-34.9 0-54.6-18.8-19.6-18.7-19.6-51.9 0-33.2 19.6-51.9 19.7-18.8 54.6-18.8zm195.4 7.5v35.1q-8.8-6-17.7-8.9-8.8-2.9-18.3-2.9-18 0-28.1 10.6-10 10.4-10 29.3 0 18.9 10 29.5 10.1 10.4 28.1 10.4 10.1 0 19.1-3 9.2-3 16.9-8.9v35.2q-10.1 3.8-20.6 5.7-10.3 1.8-20.8 1.8-36.4 0-57-18.6-20.5-18.8-20.5-52.1 0-33.3 20.5-51.9 20.6-18.8 57-18.8 10.6 0 20.8 1.9 10.4 1.9 20.6 5.6zm153 62.7v12.3h-100.6q1.6 15.1 11 22.7 9.3 7.6 26.2 7.6 13.6 0 27.7-4 14.3-4.1 29.4-12.3v33.2q-15.3 5.8-30.6 8.8-15.2 2.9-30.5 2.9-36.5 0-56.8-18.5-20.2-18.7-20.2-52.2 0-32.9 19.8-51.8 19.9-18.9 54.8-18.9 31.7 0 50.7 19.1 19.1 19.2 19.1 51.1zm-100.1-14.3h55.9q0-12.2-7.2-19.7-7.1-7.6-18.6-7.6-12.5 0-20.3 7.1-7.9 7-9.8 20.2zm219.4-48.4v32.7q-13.8-5.8-26.6-8.7-12.9-2.9-24.3-2.9-12.3 0-18.3 3.2-5.9 3-5.9 9.3 0 5.2 4.5 8 4.5 2.7 16.2 4.1l7.6 1q33 4.2 44.4 13.9 11.5 9.6 11.5 30.1 0 21.5-15.9 32.4-15.9 10.8-47.4 10.8-13.3 0-27.6-2.1-14.2-2.1-29.2-6.3v-32.7q12.8 6.2 26.3 9.4 13.6 3.1 27.5 3.1 12.6 0 19-3.5 6.4-3.5 6.4-10.3 0-5.8-4.5-8.6-4.3-2.9-17.4-4.4l-7.6-1q-28.7-3.6-40.2-13.3-11.6-9.8-11.6-29.6 0-21.4 14.7-31.7 14.7-10.4 44.9-10.4 11.9 0 25 1.8 13.2 1.8 28.5 5.7zm128.1 0v32.7q-13.8-5.8-26.7-8.7-12.8-2.9-24.3-2.9-12.2 0-18.2 3.2-5.9 3-5.9 9.3 0 5.2 4.4 8 4.6 2.7 16.3 4.1l7.5 1q33.1 4.2 44.5 13.9 11.4 9.6 11.4 30.1 0 21.5-15.8 32.4-15.9 10.8-47.4 10.8-13.4 0-27.7-2.1-14.1-2.1-29.2-6.3v-32.7q12.9 6.2 26.4 9.4 13.5 3.1 27.5 3.1 12.6 0 19-3.5 6.3-3.5 6.3-10.3 0-5.8-4.4-8.6-4.3-2.9-17.4-4.4l-7.6-1q-28.7-3.6-40.3-13.3-11.5-9.8-11.5-29.6 0-21.4 14.7-31.7 14.6-10.4 44.9-10.4 11.9 0 25 1.8 13.1 1.8 28.5 5.7zm87 23.3q-14.3 0-21.9 10.3-7.5 10.3-7.5 29.6 0 19.4 7.5 29.7 7.6 10.2 21.9 10.2 14 0 21.5-10.2 7.4-10.3 7.4-29.7 0-19.3-7.4-29.6-7.5-10.3-21.5-10.3zm0-30.8q34.7 0 54.2 18.8 19.6 18.7 19.6 51.9 0 33.2-19.6 51.9-19.5 18.8-54.2 18.8-34.9 0-54.6-18.8-19.6-18.7-19.6-51.9 0-33.2 19.6-51.9 19.7-18.8 54.6-18.8z"/></svg>