<?xml version="1.0" encoding="UTF-8"?>
<svg id="Layer_2" data-name="Layer 2" xmlns="http://www.w3.org/2000/svg" viewBox="0 0 2579.45 285.91">
  <defs>
    <style>
      .cls-1 {
        fill: #f39200;
      }

      .cls-2 {
        fill: #fff;
      }
    </style>
  </defs>
  <g id="Camada_1" data-name="Camada 1">
    <g>
      <path class="cls-2" d="M119.23,73.85l-7.65-19.08c1.03-1.03,1.71-1.93,2.03-2.69,7.37-17.28,14.64-34.44,21.82-51.48.32-.78,1.43-.81,1.78-.04l106.63,233.09c.17.36.06.54-.28.54l-50.44.03c-.48,0-.91-.28-1.11-.72L119.23,73.85h0Z"/>
      <path class="cls-1" d="M111.58,54.77l7.65,19.08c-15.17,34.85-30.45,69.4-45.86,103.68-1.14,2.56-2.83,5.93-5.04,10.09-.14.27-.03.59.24.72l.36.15c-.71.19-1.36.58-1.7,1.31-6.93,15.01-13.94,29.84-21.03,44.52l-45.52.19c-.49,0-.82-.5-.62-.95C30.68,166.64,61.07,99.89,91.24,33.3c1.52-3.34,2.88-7.26,4.39-10.83.26-.59,1.08-.6,1.35-.03,4.12,8.84,8.25,17.53,12.37,26.11.91,1.9,1.66,3.97,2.23,6.21h0Z"/>
      <path class="cls-2" d="M68.93,188.49l69.48.12c1.79,0,3.06.81,3.81,2.44l19.46,42.51c.14.3-.08.63-.4.63l-115.08.13c7.09-14.68,14.1-29.51,21.03-44.52.33-.73.99-1.12,1.7-1.31h0Z"/>
      <g>
        <path class="cls-2" d="M356.66,196.6c0,4.09-1.22,8.46-3.67,13.1-2.45,4.65-6.17,9.08-11.18,13.28-5.01,4.21-11.32,7.59-18.93,10.16-7.61,2.56-16.19,3.85-25.72,3.85-20.28,0-36.1-5.91-47.48-17.73-11.38-11.82-17.07-27.67-17.07-47.54,0-13.46,2.6-25.36,7.81-35.7,5.21-10.34,12.74-18.33,22.6-23.98,9.86-5.65,21.64-8.47,35.34-8.47,8.49,0,16.29,1.24,23.38,3.73,7.09,2.49,13.1,5.69,18.03,9.62,4.93,3.93,8.69,8.11,11.3,12.56,2.6,4.45,3.91,8.59,3.91,12.44s-1.46,7.25-4.39,9.98c-2.93,2.73-6.47,4.09-10.64,4.09-2.72,0-4.99-.7-6.79-2.1-1.8-1.4-3.83-3.67-6.07-6.79-4.01-6.09-8.2-10.66-12.56-13.7-4.37-3.04-9.92-4.57-16.65-4.57-9.7,0-17.51,3.79-23.44,11.36-5.93,7.57-8.89,17.93-8.89,31.07,0,6.17.76,11.84,2.28,17.01,1.52,5.17,3.73,9.58,6.61,13.22,2.88,3.65,6.37,6.41,10.46,8.29,4.09,1.88,8.57,2.83,13.46,2.83,6.57,0,12.2-1.52,16.89-4.57,4.69-3.04,8.83-7.69,12.44-13.94,2-3.69,4.17-6.57,6.49-8.66,2.32-2.08,5.17-3.12,8.53-3.12,4.01,0,7.33,1.52,9.98,4.57,2.64,3.05,3.97,6.29,3.97,9.74Z"/>
        <path class="cls-2" d="M489.66,170.51c0,9.78-1.52,18.79-4.57,27.05-3.05,8.25-7.45,15.35-13.22,21.28-5.77,5.93-12.66,10.48-20.67,13.64-8.01,3.17-17.03,4.75-27.05,4.75s-18.87-1.6-26.81-4.81c-7.93-3.2-14.81-7.79-20.62-13.76-5.81-5.97-10.22-13.02-13.22-21.16-3.01-8.13-4.51-17.13-4.51-26.99s1.52-19.03,4.57-27.29c3.04-8.25,7.41-15.31,13.1-21.16,5.69-5.85,12.58-10.36,20.68-13.52,8.09-3.16,17.03-4.75,26.81-4.75s18.95,1.6,27.05,4.81c8.09,3.21,15.03,7.77,20.79,13.7,5.77,5.93,10.16,12.98,13.16,21.16,3,8.17,4.51,17.19,4.51,27.05ZM456.72,170.51c0-13.38-2.95-23.8-8.83-31.25-5.89-7.45-13.8-11.18-23.74-11.18-6.41,0-12.06,1.66-16.95,4.99-4.89,3.33-8.66,8.23-11.3,14.72s-3.97,14.06-3.97,22.72,1.3,16.07,3.91,22.48c2.6,6.41,6.33,11.32,11.18,14.73,4.85,3.41,10.56,5.11,17.13,5.11,9.94,0,17.85-3.75,23.74-11.24,5.89-7.49,8.83-17.85,8.83-31.07Z"/>
        <path class="cls-2" d="M606.18,172.92v43.63c0,6.89-1.56,12.06-4.69,15.51-3.13,3.45-7.25,5.17-12.38,5.17s-9-1.72-12.08-5.17c-3.09-3.44-4.63-8.61-4.63-15.51v-52.29c0-8.25-.28-14.67-.84-19.23-.56-4.57-2.08-8.31-4.57-11.24-2.48-2.92-6.41-4.39-11.78-4.39-10.74,0-17.81,3.69-21.22,11.06-3.41,7.37-5.11,17.95-5.11,31.73v44.36c0,6.81-1.54,11.96-4.63,15.45-3.09,3.49-7.15,5.23-12.2,5.23s-9.04-1.74-12.2-5.23c-3.17-3.49-4.75-8.63-4.75-15.45v-93.88c0-6.17,1.42-10.86,4.27-14.06,2.84-3.2,6.59-4.81,11.24-4.81s8.23,1.5,11.24,4.51c3,3.01,4.51,7.15,4.51,12.44v3.12c5.69-6.81,11.78-11.82,18.27-15.03,6.49-3.2,13.7-4.81,21.64-4.81s15.35,1.64,21.28,4.93c5.93,3.29,10.82,8.25,14.67,14.91,5.53-6.73,11.46-11.72,17.79-14.96,6.33-3.25,13.34-4.87,21.04-4.87,8.97,0,16.71,1.76,23.2,5.29,6.49,3.53,11.34,8.58,14.54,15.15,2.8,5.93,4.21,15.27,4.21,28.01v64.07c0,6.89-1.56,12.06-4.69,15.51-3.12,3.45-7.25,5.17-12.38,5.17s-9.04-1.74-12.2-5.23c-3.17-3.49-4.75-8.63-4.75-15.45v-55.17c0-7.05-.3-12.7-.9-16.95-.6-4.25-2.22-7.81-4.87-10.7s-6.65-4.33-12.02-4.33c-4.33,0-8.43,1.28-12.32,3.85-3.89,2.57-6.91,6.01-9.08,10.34-2.4,5.53-3.61,15.31-3.61,29.33Z"/>
        <path class="cls-2" d="M726.68,122.19v3.97c6.17-7.61,12.58-13.2,19.23-16.77,6.65-3.56,14.18-5.35,22.6-5.35,10.1,0,19.39,2.6,27.89,7.81,8.49,5.21,15.21,12.82,20.13,22.84,4.93,10.02,7.39,21.88,7.39,35.58,0,10.1-1.42,19.37-4.27,27.83-2.84,8.46-6.75,15.55-11.72,21.28-4.97,5.73-10.84,10.14-17.61,13.22-6.77,3.08-14.04,4.63-21.82,4.63-9.38,0-17.25-1.88-23.62-5.65-6.37-3.77-12.44-9.29-18.21-16.59v49.28c0,14.42-5.25,21.64-15.75,21.64-6.17,0-10.26-1.86-12.26-5.59-2-3.73-3-9.16-3-16.29V122.43c0-6.25,1.36-10.92,4.09-14,2.72-3.08,6.45-4.63,11.18-4.63s8.43,1.58,11.36,4.75c2.92,3.17,4.39,7.71,4.39,13.64ZM790.99,169.91c0-8.66-1.32-16.09-3.97-22.3-2.64-6.21-6.31-10.98-11-14.3-4.69-3.32-9.88-4.99-15.57-4.99-9.06,0-16.69,3.57-22.9,10.7-6.21,7.13-9.32,17.63-9.32,31.49,0,13.06,3.08,23.22,9.25,30.47,6.17,7.25,13.82,10.88,22.96,10.88,5.45,0,10.5-1.58,15.15-4.75,4.65-3.17,8.37-7.91,11.18-14.24,2.8-6.33,4.21-13.98,4.21-22.96Z"/>
        <path class="cls-2" d="M914.73,218.72c-7.93,6.17-15.61,10.8-23.02,13.88-7.41,3.08-15.73,4.63-24.94,4.63-8.41,0-15.81-1.66-22.18-4.99s-11.28-7.83-14.73-13.52c-3.45-5.69-5.17-11.86-5.17-18.51,0-8.97,2.84-16.63,8.54-22.96,5.69-6.33,13.5-10.58,23.44-12.74,2.08-.48,7.25-1.56,15.51-3.25,8.25-1.68,15.33-3.22,21.22-4.63,5.89-1.4,12.28-3.1,19.17-5.11-.4-8.65-2.14-15-5.23-19.05-3.09-4.04-9.48-6.07-19.17-6.07-8.34,0-14.61,1.16-18.81,3.49-4.21,2.33-7.81,5.81-10.82,10.46-3,4.65-5.13,7.71-6.37,9.2-1.24,1.48-3.91,2.22-7.99,2.22-3.69,0-6.87-1.18-9.56-3.55-2.69-2.36-4.03-5.39-4.03-9.08,0-5.77,2.04-11.38,6.13-16.83,4.09-5.45,10.46-9.94,19.11-13.46,8.65-3.53,19.43-5.29,32.33-5.29,14.42,0,25.76,1.7,34.02,5.11,8.25,3.41,14.08,8.79,17.49,16.17,3.41,7.37,5.11,17.15,5.11,29.33,0,7.69-.02,14.23-.06,19.59-.04,5.37-.1,11.34-.18,17.91,0,6.17,1.02,12.6,3.07,19.29,2.04,6.69,3.07,11,3.07,12.92,0,3.37-1.58,6.43-4.75,9.2-3.17,2.76-6.75,4.15-10.76,4.15-3.37,0-6.69-1.58-9.98-4.75-3.29-3.17-6.77-7.75-10.46-13.76ZM912.56,171.23c-4.81,1.76-11.8,3.63-20.98,5.59-9.18,1.96-15.53,3.41-19.05,4.33-3.53.92-6.89,2.72-10.1,5.41-3.21,2.69-4.81,6.43-4.81,11.24s1.88,9.2,5.65,12.68c3.77,3.49,8.69,5.23,14.79,5.23,6.49,0,12.48-1.42,17.97-4.27,5.49-2.84,9.52-6.51,12.08-11,2.96-4.97,4.45-13.14,4.45-24.52v-4.69Z"/>
        <path class="cls-2" d="M989.42,121.95v3.97c5.77-7.61,12.08-13.2,18.93-16.77,6.85-3.56,14.72-5.35,23.62-5.35s16.39,1.88,23.2,5.65c6.81,3.77,11.9,9.1,15.27,15.99,2.16,4.01,3.56,8.33,4.21,12.98.64,4.65.96,10.58.96,17.79v61.06c0,6.57-1.5,11.54-4.51,14.91-3.01,3.37-6.91,5.05-11.72,5.05s-8.86-1.72-11.9-5.17c-3.05-3.44-4.57-8.37-4.57-14.79v-54.69c0-10.82-1.5-19.09-4.51-24.82-3-5.73-9-8.59-17.97-8.59-5.85,0-11.18,1.74-15.99,5.23-4.81,3.49-8.33,8.28-10.58,14.36-1.6,4.89-2.4,14.02-2.4,27.41v41.11c0,6.65-1.54,11.64-4.63,14.97-3.09,3.32-7.07,4.99-11.96,4.99s-8.62-1.72-11.66-5.17c-3.05-3.44-4.57-8.37-4.57-14.79v-94.84c0-6.25,1.36-10.92,4.09-14,2.72-3.08,6.45-4.63,11.18-4.63,2.89,0,5.49.68,7.81,2.04,2.32,1.36,4.19,3.41,5.59,6.13,1.4,2.72,2.1,6.05,2.1,9.98Z"/>
        <path class="cls-2" d="M1121.94,74.95v48.68c4.17-4.81,8.23-8.61,12.2-11.42,3.97-2.8,8.35-4.91,13.16-6.31,4.81-1.4,9.98-2.1,15.51-2.1,8.33,0,15.73,1.76,22.18,5.29,6.45,3.53,11.52,8.66,15.21,15.39,2.32,3.93,3.89,8.31,4.69,13.16.8,4.85,1.2,10.44,1.2,16.77v62.87c0,6.57-1.5,11.54-4.51,14.91-3,3.37-6.99,5.05-11.96,5.05-10.82,0-16.23-6.65-16.23-19.95v-55.41c0-10.5-1.56-18.57-4.69-24.22-3.13-5.65-9.06-8.47-17.79-8.47-5.85,0-11.12,1.66-15.81,4.99-4.69,3.33-8.19,7.87-10.52,13.64-1.76,4.89-2.64,13.58-2.64,26.08v43.39c0,6.49-1.46,11.44-4.39,14.85-2.93,3.41-6.99,5.11-12.2,5.11-10.82,0-16.23-6.65-16.23-19.95V74.95c0-6.65,1.42-11.64,4.27-14.97,2.84-3.32,6.83-4.99,11.96-4.99s9.27,1.68,12.2,5.05c2.92,3.37,4.39,8.33,4.39,14.91Z"/>
        <path class="cls-2" d="M1311.67,178.57h-64.19c.08,7.45,1.58,14.02,4.51,19.71,2.92,5.69,6.81,9.98,11.66,12.86,4.85,2.88,10.2,4.33,16.05,4.33,3.93,0,7.51-.46,10.76-1.38,3.25-.92,6.39-2.36,9.44-4.33,3.04-1.96,5.85-4.07,8.42-6.31,2.56-2.24,5.89-5.29,9.98-9.14,1.68-1.44,4.09-2.16,7.21-2.16,3.37,0,6.09.92,8.17,2.76,2.08,1.84,3.12,4.45,3.12,7.81,0,2.97-1.16,6.43-3.49,10.4-2.33,3.97-5.83,7.77-10.52,11.42-4.69,3.65-10.58,6.67-17.67,9.08-7.09,2.4-15.25,3.61-24.46,3.61-21.08,0-37.46-6.01-49.16-18.03-11.7-12.02-17.55-28.33-17.55-48.92,0-9.7,1.44-18.69,4.33-26.99,2.88-8.29,7.09-15.4,12.62-21.34,5.53-5.93,12.34-10.48,20.43-13.64,8.09-3.16,17.07-4.75,26.93-4.75,12.82,0,23.82,2.71,33,8.11,9.18,5.41,16.05,12.4,20.62,20.98,4.57,8.58,6.85,17.31,6.85,26.21,0,8.25-2.36,13.6-7.09,16.05-4.73,2.45-11.38,3.67-19.95,3.67ZM1247.48,159.93h59.5c-.8-11.22-3.83-19.61-9.08-25.18-5.25-5.57-12.16-8.35-20.74-8.35s-14.89,2.83-20.13,8.47c-5.25,5.65-8.44,14-9.56,25.06Z"/>
      </g>
      <g>
        <path class="cls-2" d="M1434.08,211.76c0,5.17-1.26,9.59-3.77,13.26-2.51,3.68-6.23,6.47-11.14,8.36-4.91,1.9-10.89,2.84-17.92,2.84s-12.48-1.03-17.27-3.08c-4.8-2.06-8.34-4.63-10.62-7.71-2.29-3.08-3.43-6.18-3.43-9.29,0-2.06.73-3.82,2.19-5.28s3.31-2.19,5.55-2.19c1.96,0,3.47.48,4.52,1.44,1.05.96,2.06,2.31,3.02,4.04,1.92,3.34,4.22,5.83,6.89,7.47,2.67,1.65,6.32,2.47,10.93,2.47,3.75,0,6.82-.83,9.22-2.5,2.4-1.67,3.6-3.58,3.6-5.72,0-3.29-1.25-5.69-3.74-7.2-2.49-1.51-6.59-2.95-12.3-4.32-6.44-1.6-11.69-3.28-15.73-5.04-4.04-1.76-7.28-4.08-9.7-6.96-2.42-2.88-3.63-6.42-3.63-10.62,0-3.75,1.12-7.29,3.36-10.62,2.24-3.33,5.54-6,9.91-7.99,4.36-1.99,9.63-2.98,15.8-2.98,4.84,0,9.2.5,13.06,1.51,3.86,1.01,7.08,2.35,9.67,4.04,2.58,1.69,4.55,3.56,5.9,5.62,1.35,2.06,2.02,4.07,2.02,6.03,0,2.15-.72,3.91-2.16,5.28s-3.49,2.06-6.14,2.06c-1.92,0-3.55-.55-4.9-1.64-1.35-1.1-2.89-2.74-4.63-4.94-1.42-1.83-3.08-3.29-5-4.39-1.92-1.1-4.52-1.65-7.81-1.65s-6.19.72-8.43,2.16c-2.24,1.44-3.36,3.23-3.36,5.38,0,1.97.82,3.58,2.47,4.83,1.64,1.26,3.86,2.3,6.65,3.12,2.79.82,6.63,1.83,11.52,3.02,5.8,1.42,10.54,3.11,14.22,5.07,3.68,1.97,6.47,4.28,8.36,6.96,1.9,2.67,2.84,5.72,2.84,9.15Z"/>
        <path class="cls-2" d="M1491.61,202.78h-36.6c.04,4.25.9,8,2.57,11.24,1.67,3.25,3.88,5.69,6.65,7.33,2.76,1.65,5.81,2.47,9.15,2.47,2.24,0,4.28-.26,6.13-.79,1.85-.53,3.64-1.35,5.38-2.47,1.74-1.12,3.33-2.32,4.8-3.6,1.46-1.28,3.36-3.02,5.69-5.21.96-.82,2.33-1.23,4.11-1.23,1.92,0,3.47.53,4.66,1.58,1.19,1.05,1.78,2.54,1.78,4.46,0,1.69-.66,3.67-1.99,5.93-1.33,2.26-3.32,4.43-6,6.51-2.67,2.08-6.03,3.8-10.08,5.17s-8.7,2.06-13.95,2.06c-12.02,0-21.36-3.43-28.04-10.28s-10.01-16.15-10.01-27.9c0-5.53.82-10.66,2.47-15.39,1.65-4.73,4.04-8.79,7.2-12.17,3.15-3.38,7.04-5.97,11.65-7.78,4.62-1.8,9.73-2.71,15.35-2.71,7.31,0,13.58,1.54,18.82,4.63,5.23,3.08,9.15,7.07,11.76,11.96,2.6,4.89,3.91,9.87,3.91,14.94,0,4.71-1.35,7.76-4.04,9.15-2.7,1.39-6.49,2.09-11.38,2.09ZM1455.01,192.16h33.93c-.46-6.4-2.18-11.18-5.18-14.36-2.99-3.18-6.93-4.76-11.82-4.76s-8.49,1.61-11.48,4.83c-2.99,3.22-4.81,7.99-5.45,14.29Z"/>
        <path class="cls-2" d="M1560.87,225.67v-2.4c-2.24,2.83-4.59,5.21-7.06,7.13-2.47,1.92-5.16,3.35-8.09,4.28-2.92.94-6.26,1.41-10.01,1.41-4.52,0-8.58-.94-12.17-2.81-3.59-1.87-6.36-4.46-8.33-7.75-2.33-3.98-3.5-9.69-3.5-17.14v-37.08c0-3.75.84-6.55,2.54-8.4,1.69-1.85,3.93-2.78,6.72-2.78s5.12.94,6.86,2.81c1.74,1.87,2.6,4.66,2.6,8.36v29.96c0,4.34.37,7.99,1.1,10.93.73,2.95,2.04,5.25,3.94,6.92,1.9,1.67,4.47,2.5,7.71,2.5s6.12-.94,8.91-2.81c2.79-1.87,4.82-4.32,6.1-7.33,1.05-2.65,1.58-8.45,1.58-17.41v-22.76c0-3.7.87-6.49,2.6-8.36,1.74-1.87,4-2.81,6.79-2.81s5.03.92,6.72,2.78c1.69,1.85,2.54,4.65,2.54,8.4v54.22c0,3.56-.81,6.24-2.43,8.02-1.62,1.78-3.71,2.67-6.27,2.67s-4.67-.93-6.34-2.78c-1.67-1.85-2.5-4.44-2.5-7.78Z"/>
      </g>
      <g>
        <path class="cls-2" d="M1685.75,165.59h-32.7v49.88c0,7.13-1.68,12.54-5.05,16.23-3.37,3.69-7.61,5.53-12.74,5.53s-9.7-1.82-12.98-5.47c-3.29-3.65-4.93-9-4.93-16.05V79.88c0-7.85,1.8-13.46,5.41-16.83,3.61-3.37,9.33-5.05,17.19-5.05h45.8c13.54,0,23.96,1.04,31.25,3.12,7.21,2,13.44,5.33,18.69,9.98,5.25,4.65,9.24,10.34,11.96,17.07,2.72,6.73,4.09,14.3,4.09,22.72,0,17.95-5.53,31.55-16.59,40.81-11.06,9.26-27.53,13.88-49.4,13.88ZM1677.1,84.81h-24.04v53.85h24.04c8.41,0,15.45-.88,21.1-2.64,5.65-1.76,9.96-4.65,12.92-8.66,2.96-4.01,4.45-9.26,4.45-15.75,0-7.77-2.28-14.1-6.85-18.99-5.13-5.21-15.67-7.81-31.61-7.81Z"/>
        <path class="cls-2" d="M1793.38,189.87v27.41c0,6.65-1.56,11.64-4.69,14.97-3.13,3.32-7.09,4.99-11.9,4.99s-8.62-1.68-11.66-5.05c-3.05-3.37-4.57-8.33-4.57-14.91v-91.36c0-14.74,5.33-22.12,15.99-22.12,5.45,0,9.38,1.72,11.78,5.17,2.4,3.45,3.73,8.54,3.97,15.27,3.93-6.73,7.95-11.82,12.08-15.27,4.13-3.44,9.63-5.17,16.53-5.17s13.58,1.72,20.07,5.17c6.49,3.45,9.74,8.01,9.74,13.7,0,4.01-1.38,7.31-4.15,9.92-2.76,2.61-5.75,3.91-8.96,3.91-1.2,0-4.11-.74-8.71-2.22-4.61-1.48-8.68-2.22-12.2-2.22-4.81,0-8.74,1.26-11.78,3.79-3.05,2.52-5.41,6.27-7.09,11.24-1.68,4.97-2.84,10.88-3.49,17.73-.64,6.85-.96,15.21-.96,25.06Z"/>
        <path class="cls-2" d="M1963.64,170.51c0,9.78-1.52,18.79-4.57,27.05-3.05,8.25-7.45,15.35-13.22,21.28-5.77,5.93-12.66,10.48-20.67,13.64-8.01,3.17-17.03,4.75-27.05,4.75s-18.87-1.6-26.81-4.81c-7.93-3.2-14.81-7.79-20.62-13.76-5.81-5.97-10.22-13.02-13.22-21.16-3.01-8.13-4.51-17.13-4.51-26.99s1.52-19.03,4.57-27.29c3.04-8.25,7.41-15.31,13.1-21.16,5.69-5.85,12.58-10.36,20.68-13.52,8.09-3.16,17.03-4.75,26.81-4.75s18.95,1.6,27.05,4.81c8.09,3.21,15.03,7.77,20.79,13.7,5.77,5.93,10.16,12.98,13.16,21.16,3,8.17,4.51,17.19,4.51,27.05ZM1930.7,170.51c0-13.38-2.95-23.8-8.83-31.25-5.89-7.45-13.8-11.18-23.74-11.18-6.41,0-12.06,1.66-16.95,4.99-4.89,3.33-8.66,8.23-11.3,14.72s-3.97,14.06-3.97,22.72,1.3,16.07,3.91,22.48c2.6,6.41,6.33,11.32,11.18,14.73,4.85,3.41,10.56,5.11,17.13,5.11,9.94,0,17.85-3.75,23.74-11.24,5.89-7.49,8.83-17.85,8.83-31.07Z"/>
        <path class="cls-2" d="M2088.7,196.6c0,4.09-1.22,8.46-3.67,13.1-2.45,4.65-6.17,9.08-11.18,13.28-5.01,4.21-11.32,7.59-18.93,10.16-7.61,2.56-16.19,3.85-25.72,3.85-20.28,0-36.1-5.91-47.48-17.73-11.38-11.82-17.07-27.67-17.07-47.54,0-13.46,2.6-25.36,7.81-35.7,5.21-10.34,12.74-18.33,22.6-23.98,9.86-5.65,21.64-8.47,35.34-8.47,8.49,0,16.29,1.24,23.38,3.73,7.09,2.49,13.1,5.69,18.03,9.62,4.93,3.93,8.69,8.11,11.3,12.56,2.6,4.45,3.91,8.59,3.91,12.44s-1.46,7.25-4.39,9.98c-2.93,2.73-6.47,4.09-10.64,4.09-2.72,0-4.99-.7-6.79-2.1-1.8-1.4-3.83-3.67-6.07-6.79-4.01-6.09-8.2-10.66-12.56-13.7-4.37-3.04-9.92-4.57-16.65-4.57-9.7,0-17.51,3.79-23.44,11.36-5.93,7.57-8.89,17.93-8.89,31.07,0,6.17.76,11.84,2.28,17.01,1.52,5.17,3.73,9.58,6.61,13.22,2.88,3.65,6.37,6.41,10.46,8.29,4.09,1.88,8.57,2.83,13.46,2.83,6.57,0,12.2-1.52,16.89-4.57,4.69-3.04,8.83-7.69,12.44-13.94,2-3.69,4.17-6.57,6.49-8.66,2.32-2.08,5.17-3.12,8.53-3.12,4.01,0,7.33,1.52,9.98,4.57,2.64,3.05,3.97,6.29,3.97,9.74Z"/>
        <path class="cls-2" d="M2190.44,178.57h-64.19c.08,7.45,1.58,14.02,4.51,19.71,2.92,5.69,6.81,9.98,11.66,12.86,4.85,2.88,10.2,4.33,16.05,4.33,3.93,0,7.51-.46,10.76-1.38,3.25-.92,6.39-2.36,9.44-4.33,3.04-1.96,5.85-4.07,8.42-6.31,2.56-2.24,5.89-5.29,9.98-9.14,1.68-1.44,4.09-2.16,7.21-2.16,3.37,0,6.09.92,8.17,2.76,2.08,1.84,3.12,4.45,3.12,7.81,0,2.97-1.16,6.43-3.49,10.4-2.33,3.97-5.83,7.77-10.52,11.42-4.69,3.65-10.58,6.67-17.67,9.08-7.09,2.4-15.25,3.61-24.46,3.61-21.08,0-37.46-6.01-49.16-18.03-11.7-12.02-17.55-28.33-17.55-48.92,0-9.7,1.44-18.69,4.33-26.99,2.88-8.29,7.09-15.4,12.62-21.34,5.53-5.93,12.34-10.48,20.43-13.64,8.09-3.16,17.07-4.75,26.93-4.75,12.82,0,23.82,2.71,33,8.11,9.18,5.41,16.05,12.4,20.62,20.98,4.57,8.58,6.85,17.31,6.85,26.21,0,8.25-2.36,13.6-7.09,16.05-4.73,2.45-11.38,3.67-19.95,3.67ZM2126.25,159.93h59.5c-.8-11.22-3.83-19.61-9.08-25.18-5.25-5.57-12.16-8.35-20.74-8.35s-14.89,2.83-20.13,8.47c-5.25,5.65-8.44,14-9.56,25.06Z"/>
        <path class="cls-2" d="M2332.33,194.31c0,9.06-2.21,16.81-6.61,23.26-4.41,6.45-10.92,11.34-19.53,14.67-8.62,3.32-19.09,4.99-31.43,4.99s-21.88-1.8-30.29-5.41c-8.41-3.61-14.63-8.11-18.63-13.52-4.01-5.41-6.01-10.84-6.01-16.29,0-3.61,1.28-6.69,3.85-9.26,2.56-2.56,5.81-3.85,9.74-3.85,3.44,0,6.09.84,7.93,2.52,1.84,1.68,3.61,4.05,5.29,7.09,3.37,5.85,7.39,10.22,12.08,13.1,4.69,2.88,11.08,4.33,19.17,4.33,6.57,0,11.96-1.46,16.17-4.39,4.21-2.92,6.31-6.27,6.31-10.04,0-5.77-2.18-9.98-6.55-12.62-4.37-2.64-11.56-5.17-21.58-7.57-11.3-2.8-20.5-5.75-27.59-8.83-7.09-3.08-12.76-7.15-17.01-12.2-4.25-5.05-6.37-11.26-6.37-18.63,0-6.57,1.96-12.78,5.89-18.63,3.93-5.85,9.72-10.52,17.37-14,7.65-3.49,16.89-5.23,27.71-5.23,8.49,0,16.13.88,22.9,2.64,6.77,1.76,12.42,4.13,16.95,7.09,4.53,2.97,7.97,6.25,10.34,9.86,2.36,3.61,3.55,7.13,3.55,10.58,0,3.77-1.26,6.85-3.79,9.26s-6.11,3.61-10.76,3.61c-3.37,0-6.23-.96-8.59-2.89-2.36-1.92-5.07-4.81-8.11-8.65-2.49-3.2-5.41-5.77-8.78-7.69-3.37-1.92-7.93-2.88-13.7-2.88s-10.86,1.26-14.79,3.79c-3.93,2.52-5.89,5.67-5.89,9.44,0,3.45,1.44,6.27,4.33,8.47,2.88,2.21,6.77,4.03,11.66,5.47,4.89,1.44,11.62,3.21,20.19,5.29,10.18,2.49,18.49,5.45,24.94,8.9,6.45,3.45,11.34,7.51,14.66,12.2,3.33,4.69,4.99,10.04,4.99,16.05Z"/>
        <path class="cls-2" d="M2447.3,194.31c0,9.06-2.21,16.81-6.61,23.26-4.41,6.45-10.92,11.34-19.53,14.67-8.62,3.32-19.09,4.99-31.43,4.99s-21.88-1.8-30.29-5.41c-8.41-3.61-14.63-8.11-18.63-13.52-4.01-5.41-6.01-10.84-6.01-16.29,0-3.61,1.28-6.69,3.85-9.26,2.56-2.56,5.81-3.85,9.74-3.85,3.44,0,6.09.84,7.93,2.52,1.84,1.68,3.61,4.05,5.29,7.09,3.37,5.85,7.39,10.22,12.08,13.1,4.69,2.88,11.08,4.33,19.17,4.33,6.57,0,11.96-1.46,16.17-4.39,4.21-2.92,6.31-6.27,6.31-10.04,0-5.77-2.18-9.98-6.55-12.62-4.37-2.64-11.56-5.17-21.58-7.57-11.3-2.8-20.5-5.75-27.59-8.83-7.09-3.08-12.76-7.15-17.01-12.2-4.25-5.05-6.37-11.26-6.37-18.63,0-6.57,1.96-12.78,5.89-18.63,3.93-5.85,9.72-10.52,17.37-14,7.65-3.49,16.89-5.23,27.71-5.23,8.49,0,16.13.88,22.9,2.64,6.77,1.76,12.42,4.13,16.95,7.09,4.53,2.97,7.97,6.25,10.34,9.86,2.36,3.61,3.55,7.13,3.55,10.58,0,3.77-1.26,6.85-3.79,9.26s-6.11,3.61-10.76,3.61c-3.37,0-6.23-.96-8.59-2.89-2.36-1.92-5.07-4.81-8.11-8.65-2.49-3.2-5.41-5.77-8.78-7.69-3.37-1.92-7.93-2.88-13.7-2.88s-10.86,1.26-14.79,3.79c-3.93,2.52-5.89,5.67-5.89,9.44,0,3.45,1.44,6.27,4.33,8.47,2.88,2.21,6.77,4.03,11.66,5.47,4.89,1.44,11.62,3.21,20.19,5.29,10.18,2.49,18.49,5.45,24.94,8.9,6.45,3.45,11.34,7.51,14.66,12.2,3.33,4.69,4.99,10.04,4.99,16.05Z"/>
        <path class="cls-2" d="M2579.45,170.51c0,9.78-1.52,18.79-4.57,27.05-3.05,8.25-7.45,15.35-13.22,21.28-5.77,5.93-12.66,10.48-20.67,13.64-8.01,3.17-17.03,4.75-27.05,4.75s-18.87-1.6-26.81-4.81c-7.93-3.2-14.81-7.79-20.62-13.76-5.81-5.97-10.22-13.02-13.22-21.16-3.01-8.13-4.51-17.13-4.51-26.99s1.52-19.03,4.57-27.29c3.04-8.25,7.41-15.31,13.1-21.16,5.69-5.85,12.58-10.36,20.68-13.52,8.09-3.16,17.03-4.75,26.81-4.75s18.95,1.6,27.05,4.81c8.09,3.21,15.03,7.77,20.79,13.7,5.77,5.93,10.16,12.98,13.16,21.16,3,8.17,4.51,17.19,4.51,27.05ZM2546.51,170.51c0-13.38-2.95-23.8-8.83-31.25-5.89-7.45-13.8-11.18-23.74-11.18-6.41,0-12.06,1.66-16.95,4.99-4.89,3.33-8.66,8.23-11.3,14.72s-3.97,14.06-3.97,22.72,1.3,16.07,3.91,22.48c2.6,6.41,6.33,11.32,11.18,14.73,4.85,3.41,10.56,5.11,17.13,5.11,9.94,0,17.85-3.75,23.74-11.24,5.89-7.49,8.83-17.85,8.83-31.07Z"/>
      </g>
    </g>
  </g>
</svg>